#N canvas 509 151 450 300 12;
#X obj 39 14 bng 15 250 50 0 empty empty empty 17 7 0 10 -262144 -1
-1;
#X obj 39 38 random 800;
#X obj 47 67 + 200;
#X floatatom 46 102 5 0 0 0 - - -;
#X obj 48 136 osc~;
#X obj 52 174 *~ 0.7;
#X obj 47 216 dac~, f 5;
#X text 272 126 LaToya McIntyre Ex 2.2.1.2.3;
#X connect 0 0 1 0;
#X connect 1 0 2 0;
#X connect 2 0 3 0;
#X connect 3 0 4 0;
#X connect 4 0 5 0;
#X connect 5 0 6 0;
#X connect 5 0 6 1;
