#N canvas 366 54 906 688 12;
#X obj 21 14 cnv 15 250 200 empty empty empty 20 12 0 14 -232576 -66577
0;
#X text 30 13 Boilerplate: control rendering;
#X msg 30 50 create;
#X msg 64 88 destroy;
#X obj 89 115 tgl 30 0 empty empty empty 17 7 0 10 -262144 -1 -1 0
1;
#X obj 44 168 gemwin;
#X obj 287 48 gemhead;
#X obj 287 87 pix_video;
#X obj 389 115 t a a;
#X obj 386 168 print info;
#X obj 284 207 pix_texture2;
#X obj 284 339 rotate 180 1 1 0;
#X obj 283 458 cube;
#X obj 310 389 hsl 128 15 0 6 0 0 empty empty controls_cube_size_and_osc_amp
-2 -8 0 10 -260097 -1 -1 3200 1;
#X obj 341 415 * 15;
#X obj 347 454 + 8, f 4;
#X floatatom 409 292 5 60 420 0 - - -;
#X text 386 206 renders video onto shape;
#X obj 410 254 - 60;
#X obj 440 228 hsl 128 15 60 420 0 0 empty empty empty -2 -8 0 10 -260097
-1 -1 2500 1;
#X floatatom 486 258 5 0 0 0 - - -;
#X obj 490 291 osc~;
#X msg 508 414 3;
#X text 602 229 controls cube rotation & osc freq;
#X text 559 413 <-- to shut up the osc;
#X floatatom 488 466 5 0 0 0 - - -;
#X obj 488 502 dbtorms;
#X obj 444 536 *~ 0;
#X floatatom 509 538 5 0 0 0 - - -;
#X obj 456 586 output~;
#X connect 2 0 5 0;
#X connect 3 0 5 0;
#X connect 4 0 5 0;
#X connect 6 0 7 0;
#X connect 7 0 10 0;
#X connect 7 1 8 0;
#X connect 8 0 9 0;
#X connect 10 0 11 0;
#X connect 11 0 12 0;
#X connect 13 0 12 1;
#X connect 13 0 14 0;
#X connect 14 0 15 0;
#X connect 15 0 25 0;
#X connect 16 0 11 1;
#X connect 18 0 16 0;
#X connect 19 0 18 0;
#X connect 19 0 20 0;
#X connect 20 0 21 0;
#X connect 21 0 27 0;
#X connect 22 0 25 0;
#X connect 25 0 26 0;
#X connect 26 0 27 1;
#X connect 26 0 28 0;
#X connect 27 0 29 0;
#X connect 27 0 29 1;
