#N canvas 162 41 745 513 12;
#X obj 31 67 unpackOSC;
#X obj 65 294 osc~;
#X obj 171 446 dac~;
#X obj 32 146 routeOSC /damaged /dead;
#X obj 146 226 mtof;
#X obj 147 266 osc~;
#X obj 175 401 *~ 0.5;
#X obj 34 41 udpreceive localhost 8000;
#X obj 237 373 dbtorms;
#X obj 212 294 osc~;
#X obj 173 94 routeOSC /hit /shot;
#X obj 317 293 line~;
#X obj 267 205 unpack f f;
#X obj 293 322 snapshot~;
#X floatatom 281 346 5 0 0 0 - - -;
#X msg 334 249 \$1 100;
#X connect 0 0 10 0;
#X connect 1 0 6 0;
#X connect 3 0 1 0;
#X connect 3 1 4 0;
#X connect 4 0 5 0;
#X connect 5 0 6 0;
#X connect 6 0 2 1;
#X connect 6 0 2 0;
#X connect 7 0 0 0;
#X connect 8 0 6 1;
#X connect 9 0 6 0;
#X connect 10 0 3 0;
#X connect 10 1 12 0;
#X connect 11 0 13 0;
#X connect 12 0 9 0;
#X connect 12 1 11 0;
#X connect 13 0 14 0;
#X connect 14 0 8 0;
#X connect 15 0 11 0;
