#N canvas 150 47 450 513 12;
#X obj 31 74 unpackOSC;
#X obj 61 246 mtof;
#X obj 65 294 osc~;
#X obj 171 446 dac~;
#X obj 30 103 routeOSC /hit;
#X obj 32 146 routeOSC /damaged /dead;
#X obj 34 41 udpreceive localhost 9001;
#X obj 17 196 unpack i i;
#X obj 120 219 unpack i i;
#X obj 115 287 phasor~;
#X obj 169 346 *~ 0.25;
#X obj 221 248 mtof;
#X obj 225 296 osc~;
#X obj 275 289 phasor~;
#X connect 0 0 4 0;
#X connect 1 0 2 0;
#X connect 1 0 9 0;
#X connect 2 0 10 0;
#X connect 4 0 5 0;
#X connect 5 0 7 0;
#X connect 5 1 8 0;
#X connect 6 0 0 0;
#X connect 7 0 1 0;
#X connect 7 1 1 0;
#X connect 8 0 11 0;
#X connect 8 1 10 1;
#X connect 9 0 10 0;
#X connect 10 0 3 1;
#X connect 10 0 3 0;
#X connect 11 0 12 0;
#X connect 11 0 13 0;
#X connect 12 0 10 0;
#X connect 13 0 10 0;
