#N canvas 474 97 450 300 12;
#X floatatom 123 21 5 0 0 0 - - -;
#X obj 29 76 * 400;
#X obj 162 76 * 600;
#X obj 29 119 osc~;
#X obj 86 123 print a;
#X obj 177 128 osc~;
#X obj 241 132 print b;
#X obj 34 178 *~ 0.5;
#X obj 33 232 dac~;
#X text 231 205 LaToya McIntyre Example 2.2.1.2.2;
#X connect 0 0 1 0;
#X connect 0 0 2 0;
#X connect 1 0 3 0;
#X connect 1 0 4 0;
#X connect 2 0 5 0;
#X connect 2 0 6 0;
#X connect 3 0 7 0;
#X connect 5 0 7 0;
#X connect 7 0 8 0;
#X connect 7 0 8 1;
